<svg xmlns:xlink="http://www.w3.org/1999/xlink" xmlns="http://www.w3.org/2000/svg" class="marker-svg marker-svg-style3" x="0px" y="0px" viewBox="0 0 277 18" fill="currentColor" preserveAspectRatio="none" width="230"  height="18" >
        <g fill="#F0CC30"> <path d="M1.5,17.9l-1-3.9C27,7.4,116.4-1.2,172.3,1.2c1.4,0.1,2.5,1,2.8,2.4c0.3,1.4-0.4,2.7-1.7,3.3l-6.8,3.1
            c19.3-2.9,56.4-5.6,109.8,3.8l-0.7,3.9c-68.4-12-109.5-4.2-120.5-1.5c-1.8,0.5-3-0.4-3.4-1.5c-0.4-1.1,0-2.5,1.8-3.3l14.2-6.4
            C112,3.2,27.1,11.5,1.5,17.9z" fill="#F0CC30"></path> </g>
      </svg>